<mxfile host="app.diagrams.net" modified="2023-07-05T14:06:55.179Z" agent="Mozilla/5.0 (X11; Linux x86_64) AppleWebKit/537.36 (KHTML, like Gecko) Chrome/114.0.0.0 Safari/537.36" etag="vIF6YM2_DejIF1NaAI0g" version="21.5.2" type="github" pages="2">
  <diagram name="Page-1" id="HiIG8pIs6fOfm8-EsXFN">
    <mxGraphModel dx="1993" dy="720" grid="1" gridSize="10" guides="1" tooltips="1" connect="1" arrows="1" fold="1" page="1" pageScale="1" pageWidth="827" pageHeight="1169" math="0" shadow="0">
      <root>
        <mxCell id="0" />
        <mxCell id="1" parent="0" />
        <mxCell id="UwCVG1TzcMOPDWrv7JC_-5" value="&lt;span style=&quot;font-style: normal; font-size: 22px;&quot;&gt;&lt;b style=&quot;-webkit-tap-highlight-color: transparent; color: rgb(60, 64, 67); font-family: Roboto, Arial, sans-serif; letter-spacing: 0.2px; text-align: start;&quot;&gt;&lt;span style=&quot;-webkit-tap-highlight-color: transparent;&quot;&gt;10 alternative control interfaces&lt;/span&gt;&lt;/b&gt;&amp;nbsp;&lt;/span&gt;" style="text;strokeColor=none;fillColor=none;html=1;align=center;verticalAlign=middle;whiteSpace=wrap;rounded=0;fontSize=16;fontStyle=2" vertex="1" parent="1">
          <mxGeometry x="219" y="70" width="390" height="40" as="geometry" />
        </mxCell>
        <mxCell id="UwCVG1TzcMOPDWrv7JC_-6" value="&lt;b&gt;Design 1:&lt;/b&gt;" style="text;strokeColor=none;fillColor=none;html=1;align=center;verticalAlign=middle;whiteSpace=wrap;rounded=0;fontSize=16;" vertex="1" parent="1">
          <mxGeometry x="60" y="160" width="160" height="30" as="geometry" />
        </mxCell>
        <mxCell id="UwCVG1TzcMOPDWrv7JC_-7" value="" style="endArrow=none;html=1;rounded=0;fontSize=12;startSize=8;endSize=8;curved=1;" edge="1" parent="1">
          <mxGeometry width="50" height="50" relative="1" as="geometry">
            <mxPoint x="210" y="110" as="sourcePoint" />
            <mxPoint x="600" y="110" as="targetPoint" />
            <Array as="points">
              <mxPoint x="600" y="110" />
            </Array>
          </mxGeometry>
        </mxCell>
        <mxCell id="UwCVG1TzcMOPDWrv7JC_-8" value="" style="rounded=1;whiteSpace=wrap;html=1;fontSize=16;" vertex="1" parent="1">
          <mxGeometry x="230" y="200" width="410" height="550" as="geometry" />
        </mxCell>
        <mxCell id="UwCVG1TzcMOPDWrv7JC_-9" value="" style="rounded=0;whiteSpace=wrap;html=1;fontSize=16;" vertex="1" parent="1">
          <mxGeometry x="310" y="370" width="120" height="140" as="geometry" />
        </mxCell>
        <mxCell id="UwCVG1TzcMOPDWrv7JC_-10" value="Floor" style="rounded=1;whiteSpace=wrap;html=1;fontSize=16;" vertex="1" parent="1">
          <mxGeometry x="325" y="390" width="90" height="20" as="geometry" />
        </mxCell>
        <mxCell id="UwCVG1TzcMOPDWrv7JC_-14" value="1&amp;nbsp; 2&amp;nbsp; 3&lt;br&gt;4&amp;nbsp; 5&amp;nbsp; 6&lt;br&gt;7&amp;nbsp; 8&amp;nbsp; 9&lt;br&gt;0" style="text;strokeColor=none;fillColor=none;html=1;align=center;verticalAlign=middle;whiteSpace=wrap;rounded=0;fontSize=16;" vertex="1" parent="1">
          <mxGeometry x="325" y="440" width="60" height="30" as="geometry" />
        </mxCell>
        <mxCell id="UwCVG1TzcMOPDWrv7JC_-16" value="" style="rounded=1;whiteSpace=wrap;html=1;fontSize=16;direction=south;" vertex="1" parent="1">
          <mxGeometry x="395" y="415" width="20" height="80" as="geometry" />
        </mxCell>
        <mxCell id="UwCVG1TzcMOPDWrv7JC_-17" value="&lt;font style=&quot;font-size: 14px;&quot;&gt;Total weight = 450 kg&lt;br&gt;weight limit = 1000 kg&lt;/font&gt;" style="rounded=1;whiteSpace=wrap;html=1;fontSize=16;" vertex="1" parent="1">
          <mxGeometry x="305" y="240" width="260" height="40" as="geometry" />
        </mxCell>
        <mxCell id="UwCVG1TzcMOPDWrv7JC_-18" value="Elevator" style="text;html=1;align=center;verticalAlign=middle;resizable=0;points=[];autosize=1;strokeColor=#6c8ebf;fillColor=#dae8fc;fontSize=16;fontStyle=1;gradientColor=#7ea6e0;" vertex="1" parent="1">
          <mxGeometry x="395" y="760" width="90" height="30" as="geometry" />
        </mxCell>
        <mxCell id="UwCVG1TzcMOPDWrv7JC_-20" value="&lt;ul&gt;&lt;li style=&quot;text-align: left; border-color: var(--border-color);&quot;&gt;Passanger will press their floor number in the control board&lt;/li&gt;&lt;li style=&quot;text-align: left; border-color: var(--border-color);&quot;&gt;Elevator will show the input floor number in the display&lt;/li&gt;&lt;li style=&quot;text-align: left; border-color: var(--border-color);&quot;&gt;Elevator will also show the weight limit&lt;/li&gt;&lt;/ul&gt;" style="text;strokeColor=none;fillColor=none;html=1;align=center;verticalAlign=middle;whiteSpace=wrap;rounded=0;fontSize=16;spacingBottom=5;spacing=5;spacingTop=2;" vertex="1" parent="1">
          <mxGeometry x="-10" y="850" width="630" height="230" as="geometry" />
        </mxCell>
      </root>
    </mxGraphModel>
  </diagram>
  <diagram id="0lyPps8062e5UyxXNfmz" name="Page-2">
    <mxGraphModel dx="1166" dy="670" grid="0" gridSize="10" guides="1" tooltips="1" connect="1" arrows="1" fold="1" page="1" pageScale="1" pageWidth="827" pageHeight="1169" background="none" math="0" shadow="0">
      <root>
        <mxCell id="0" />
        <mxCell id="1" parent="0" />
      </root>
    </mxGraphModel>
  </diagram>
</mxfile>
